#define bstack_width 8
#define bstack_height 8
static unsigned char bstack_bits[] = {
  0xdb, 0xdb, 0xdb, 0x00, 0xff, 0xff, 0xff, 0xff};
